<?xml version="1.0" encoding="UTF-8" standalone="no"?>
<svg
   xmlns:dc="http://purl.org/dc/elements/1.1/"
   xmlns:cc="http://creativecommons.org/ns#"
   xmlns:rdf="http://www.w3.org/1999/02/22-rdf-syntax-ns#"
   xmlns:svg="http://www.w3.org/2000/svg"
   xmlns="http://www.w3.org/2000/svg"
   xmlns:sodipodi="http://sodipodi.sourceforge.net/DTD/sodipodi-0.dtd"
   xmlns:inkscape="http://www.inkscape.org/namespaces/inkscape"
   width="594.09399"
   height="180"
   viewBox="0 -212.78 594.094 180"
   version="1.1"
   id="svg6"
   sodipodi:docname="logo.svg"
   inkscape:version="1.0.1 (3bc2e813f5, 2020-09-07)">
  <metadata
     id="metadata12">
    <rdf:RDF>
      <cc:Work
         rdf:about="">
        <dc:format>image/svg+xml</dc:format>
        <dc:type
           rdf:resource="http://purl.org/dc/dcmitype/StillImage" />
        <dc:title></dc:title>
      </cc:Work>
    </rdf:RDF>
  </metadata>
  <defs
     id="defs10" />
  <sodipodi:namedview
     pagecolor="#ffffff"
     bordercolor="#666666"
     borderopacity="1"
     objecttolerance="10"
     gridtolerance="10"
     guidetolerance="10"
     inkscape:pageopacity="0"
     inkscape:pageshadow="2"
     inkscape:window-width="1588"
     inkscape:window-height="939"
     id="namedview8"
     showgrid="false"
     inkscape:zoom="0.71537502"
     inkscape:cx="128.98592"
     inkscape:cy="219.46909"
     inkscape:window-x="0"
     inkscape:window-y="0"
     inkscape:window-maximized="0"
     inkscape:current-layer="svg6" />
  <g
     fill="#6d6e70"
     id="g4"
     transform="translate(1.3978682,-204.36764)">
    <path
       d="M 30.577,0.586 C 18.417,5.68 5.049,20.053 0.827,38.108 -4.52,60.977 17.731,70.648 19.556,67.482 21.704,63.755 15.569,62.495 14.306,50.629 12.674,35.303 19.799,18.178 28.767,10.664 c 1.667,-1.396 1.587,0.547 1.587,4.141 0,6.428 -0.355,64.122 -0.355,76.164 0,16.293 -0.673,21.438 -1.882,26.521 -1.225,5.152 -3.193,8.633 -1.702,9.975 1.667,1.5 8.783,-2.068 12.903,-7.818 4.94,-6.896 6.669,-15.178 6.98,-24.172 0.375,-10.842 0.359,-28.046 0.375,-37.859 0.015,-9 0.151,-35.354 -0.158,-51.197 C 46.44,2.533 35.663,-1.544 30.577,0.586 Z M 591.424,86.18 c -1.764,0 -2.568,1.818 -3.234,4.879 -2.311,10.643 -4.738,13.045 -7.869,13.045 -3.498,0 -6.642,-5.27 -7.449,-15.818 -0.635,-8.294 -0.533,-23.565 0.279,-38.754 0.166,-3.121 -0.695,-6.209 -9.066,-9.25 -3.602,-1.309 -8.838,-3.234 -11.445,3.059 -7.365,17.779 -10.248,31.895 -10.926,37.627 -0.035,0.297 -0.398,0.357 -0.463,-0.336 -0.432,-4.592 -1.398,-12.938 -1.518,-30.471 -0.023,-3.421 -0.748,-6.333 -4.524,-8.717 -2.45,-1.548 -9.89,-4.283 -12.569,-1.028 -2.32,2.662 -5.009,9.826 -7.802,18.318 -2.27,6.901 -3.851,11.57 -3.851,11.57 0,0 0.029,-18.623 0.057,-25.687 0.012,-2.665 -1.816,-3.554 -2.367,-3.714 -2.48,-0.72 -7.369,-1.923 -9.443,-1.923 -2.561,0 -3.188,1.431 -3.188,3.516 0,0.273 -0.404,24.519 -0.404,41.473 0,0.736 10e-4,1.54 0.004,2.394 -1.416,7.792 -6.008,18.37 -11.002,18.37 -5,0 -7.358,-4.422 -7.358,-24.634 0,-11.79 0.354,-16.918 0.527,-25.445 0.102,-4.912 0.297,-8.685 0.285,-9.54 -0.037,-2.625 -4.576,-3.948 -6.688,-4.438 -2.122,-0.492 -3.966,-0.684 -5.406,-0.602 -2.038,0.115 -3.479,1.452 -3.479,3.291 0,0.986 0.011,2.86 0.011,2.86 -2.625,-4.125 -6.848,-6.996 -9.656,-7.828 -7.566,-2.246 -15.461,-0.255 -21.416,8.077 -4.733,6.621 -7.586,14.121 -8.709,24.895 -0.821,7.876 -0.553,15.864 0.906,22.619 -1.763,7.622 -5.036,10.745 -8.62,10.745 -5.203,0 -8.975,-8.492 -8.537,-23.18 0.289,-9.661 2.222,-16.44 4.335,-26.248 0.901,-4.182 0.169,-6.37 -1.667,-8.468 -1.684,-1.925 -5.271,-2.907 -10.43,-1.698 -3.674,0.861 -8.928,1.789 -13.733,2.501 0,0 0.29,-1.157 0.528,-3.197 1.25,-10.698 -10.375,-9.83 -14.084,-6.413 -2.214,2.04 -3.721,4.446 -4.293,8.772 -0.907,6.864 4.691,10.103 4.691,10.103 -1.837,8.41 -6.34,19.394 -10.988,27.336 -2.49,4.255 -4.396,7.408 -6.854,10.76 a 937.569,937.569 0 0 1 -0.02,-3.738 c -0.057,-17.679 0.179,-31.593 0.282,-36.608 0.102,-4.912 0.299,-8.584 0.287,-9.439 -0.027,-1.92 -1.148,-2.646 -3.48,-3.563 -2.062,-0.812 -4.5,-1.374 -7.029,-1.57 -3.191,-0.248 -5.115,1.444 -5.064,3.446 0.01,0.378 0.01,2.699 0.01,2.699 -2.625,-4.125 -6.848,-6.996 -9.656,-7.828 -7.566,-2.246 -15.461,-0.255 -21.416,8.077 -4.732,6.621 -7.831,15.912 -8.709,24.812 -0.818,8.295 -0.667,15.344 0.448,21.282 -1.203,5.946 -4.662,12.164 -8.573,12.164 -5,0 -7.845,-4.422 -7.845,-24.634 0,-11.79 0.354,-16.917 0.527,-25.445 0.102,-4.912 0.297,-8.685 0.285,-9.54 -0.037,-2.625 -4.576,-3.948 -6.688,-4.438 -2.21,-0.512 -4.118,-0.699 -5.583,-0.591 -1.934,0.144 -3.292,1.874 -3.292,3.165 v 2.976 c -2.625,-4.125 -6.848,-6.996 -9.656,-7.828 -7.566,-2.246 -15.417,-0.223 -21.416,8.077 -3.912,5.412 -7.079,11.412 -8.709,24.694 -0.471,3.838 -0.679,7.433 -0.652,10.792 -1.56,9.54 -8.449,20.535 -14.086,20.535 -3.298,0 -6.439,-6.396 -6.439,-20.029 0,-18.16 1.125,-44.015 1.314,-46.507 0,0 7.121,-0.121 8.5,-0.137 3.553,-0.039 6.77,0.045 11.5,-0.197 2.373,-0.121 4.659,-8.637 2.21,-9.691 -1.109,-0.477 -8.955,-0.895 -12.064,-0.961 -2.615,-0.059 -9.896,-0.598 -9.896,-0.598 0,0 0.653,-17.162 0.806,-18.975 0.129,-1.512 -1.826,-2.289 -2.947,-2.762 -2.727,-1.152 -5.165,-1.705 -8.056,-2.301 -3.994,-0.824 -5.807,-0.018 -6.16,3.354 -0.533,5.115 -0.809,20.101 -0.809,20.101 -2.932,0 -12.943,-0.573 -15.875,-0.573 -2.725,0 -5.664,11.715 -1.898,11.859 4.333,0.168 11.884,0.313 16.89,0.464 0,0 -0.223,26.282 -0.223,34.396 0,0.863 0.003,1.694 0.009,2.501 -2.755,14.36 -12.46,22.117 -12.46,22.117 2.084,-9.5 -2.173,-16.634 -9.84,-22.673 -2.826,-2.226 -8.402,-6.438 -14.642,-11.055 0,0 3.614,-3.562 6.819,-10.729 2.271,-5.076 2.369,-10.885 -3.206,-12.166 -9.209,-2.117 -16.804,4.646 -19.069,11.867 -1.755,5.595 -0.819,9.745 2.619,14.058 0.251,0.315 0.523,0.636 0.804,0.96 -2.079,4.007 -4.935,9.402 -7.354,13.586 -6.715,11.616 -11.786,20.804 -15.62,20.804 -3.064,0 -3.022,-9.328 -3.022,-18.062 0,-7.529 0.556,-18.849 1,-30.569 0.147,-3.876 -1.792,-6.084 -5.041,-8.084 -1.974,-1.215 -6.187,-3.604 -8.626,-3.604 -3.652,0 -14.189,0.497 -24.145,29.296 -1.255,3.63 -3.72,10.244 -3.72,10.244 L 75.545,43.8 c 0,-0.812 -0.433,-1.598 -1.423,-2.135 -1.678,-0.91 -6.159,-2.773 -10.143,-2.773 -1.898,0 -2.846,0.883 -2.846,2.643 l -0.348,54.183 c 0,4.117 0.107,8.92 0.515,11.02 0.405,2.104 1.062,3.814 1.876,4.832 0.812,1.016 1.752,1.791 3.302,2.111 1.442,0.297 9.339,1.311 9.75,-1.707 0.492,-3.617 0.51,-7.529 4.657,-22.119 6.456,-22.715 14.873,-33.798 18.831,-37.734 0.691,-0.688 1.481,-0.729 1.443,0.397 -0.168,4.979 -0.762,17.424 -1.163,27.996 -1.072,28.292 4.075,33.536 11.43,33.536 5.627,0 13.559,-5.592 22.062,-19.744 5.3,-8.82 10.447,-17.468 14.146,-23.701 2.577,2.386 5.468,4.953 8.359,7.696 6.716,6.374 8.921,12.431 7.458,18.177 -1.119,4.393 -5.333,8.92 -12.833,4.52 -2.186,-1.283 -3.12,-2.275 -5.317,-3.723 -1.181,-0.777 -2.983,-1.01 -4.064,-0.195 -2.809,2.117 -4.415,4.811 -5.332,8.145 -0.892,3.244 2.357,4.959 5.725,6.459 2.9,1.291 9.133,2.461 13.108,2.594 15.487,0.518 27.895,-7.478 36.531,-28.104 1.547,17.813 8.126,27.893 19.559,27.893 7.643,0 15.306,-9.879 18.657,-19.598 0.962,3.962 2.386,7.406 4.225,10.32 8.809,13.957 25.898,10.953 34.482,-0.898 2.653,-3.662 3.058,-4.979 3.058,-4.979 1.252,11.191 10.264,15.102 15.424,15.102 5.779,0 11.746,-2.732 15.928,-12.147 a 28.761,28.761 0 0 0 1.609,2.923 c 8.809,13.957 25.898,10.953 34.482,-0.898 0.404,-0.557 0.756,-1.061 1.062,-1.514 l 0.252,7.352 -7.902,7.248 c -13.247,12.141 -23.311,21.35 -24.051,32.074 -0.941,13.674 10.142,18.756 18.539,19.422 8.902,0.707 16.539,-4.215 21.227,-11.104 4.125,-6.062 6.824,-19.111 6.627,-32 -0.079,-5.161 -0.209,-11.723 -0.312,-18.757 4.65,-5.4 9.89,-12.226 14.713,-20.214 5.258,-8.707 10.892,-20.398 13.776,-29.497 0,0 4.895,0.042 10.119,-0.3 1.671,-0.109 2.15,0.231 1.842,1.457 -0.373,1.479 -6.6,25.498 -0.917,41.498 3.89,10.953 12.659,14.477 17.858,14.477 6.086,0 11.907,-4.596 15.027,-11.421 0.376,0.761 0.77,1.497 1.198,2.177 8.809,13.957 25.838,10.936 34.482,-0.898 1.95,-2.67 3.058,-4.979 3.058,-4.979 1.855,11.582 10.862,15.16 16.021,15.16 5.374,0 10.474,-2.203 14.611,-11.994 0.173,4.312 0.445,7.836 0.875,8.947 0.262,0.68 1.789,1.533 2.9,1.945 4.916,1.822 9.93,0.961 11.785,0.586 1.285,-0.26 2.287,-1.291 2.424,-3.953 0.359,-6.99 0.139,-18.734 2.258,-27.463 3.557,-14.648 6.875,-20.331 8.449,-23.143 0.881,-1.576 1.875,-1.836 1.911,-0.168 0.073,3.375 0.241,13.286 1.62,26.602 1.012,9.793 2.363,15.582 3.402,17.414 2.965,5.238 6.627,5.486 9.609,5.486 1.896,0 5.864,-0.523 5.509,-3.857 -0.173,-1.625 0.13,-11.668 3.637,-26.099 2.29,-9.424 6.108,-17.938 7.485,-21.052 0.508,-1.148 0.744,-0.243 0.736,-0.067 -0.29,6.49 -0.941,27.718 1.703,39.328 3.584,15.729 13.951,17.488 17.564,17.488 7.713,0 14.021,-5.867 16.146,-21.305 0.517,-3.719 -0.241,-6.588 -2.512,-6.588 z M 268.335,76.636 c -0.442,8.17 -2.036,15 -4.594,19.961 -4.628,8.979 -13.785,11.826 -17.822,-1.148 -2.911,-9.355 -1.92,-22.112 -0.709,-29.002 1.797,-10.227 6.297,-17.477 13.322,-16.79 7.216,0.706 10.724,9.979 9.803,26.979 z m 70.501,0.118 c -0.412,7.715 -2.412,15.465 -4.594,19.844 -4.504,9.041 -13.92,11.867 -17.822,-1.148 -2.668,-8.893 -2.029,-20.402 -0.709,-27.653 1.713,-9.41 5.865,-18.139 13.322,-18.139 7.25,-0.001 10.825,7.953 9.803,27.096 z m 1.84,52.635 c -0.098,14.074 -2.312,26.414 -7.062,29.998 -6.737,5.082 -15.792,1.27 -13.917,-9 1.659,-9.088 9.505,-18.369 20.999,-29.709 -0.001,0 0.023,2.586 -0.02,8.711 z M 462.378,76.836 c -0.392,8.47 -2.267,15.091 -4.594,19.761 -4.505,9.041 -13.854,11.848 -17.822,-1.148 -2.163,-7.084 -2.264,-18.916 -0.709,-28.802 1.583,-10.07 6.003,-17.677 13.322,-16.99 7.219,0.677 10.598,9.979 9.803,27.179 z"
       id="path2" />
  </g>
</svg>
